<svg width="56" height="40" viewBox="0 0 56 40" fill="none" xmlns="http://www.w3.org/2000/svg">
<path d="M48.9002 0.199951H6.7002C3.1002 0.199951 0.200195 2.99995 0.200195 6.69995V33.4C0.200195 37 3.1002 39.7999 6.7002 39.7999H48.9002C52.5002 39.7999 55.3002 36.9 55.3002 33.4V6.69995C55.3002 3.09995 52.5002 0.199951 48.9002 0.199951ZM48.9002 2.79995C49.2002 2.79995 49.4002 2.79995 49.7002 2.89995L27.6002 22.4L6.0002 2.79995C6.2002 2.79995 6.5002 2.69995 6.7002 2.69995H48.9002V2.79995ZM52.8002 33.4C52.8002 35.6 51.0002 37.2999 48.9002 37.2999H6.7002C4.5002 37.2999 2.7002 35.5 2.7002 33.4V6.69995C2.7002 5.69995 3.1002 4.79995 3.7002 4.09995L27.6002 25.7999L51.9002 4.19995C52.5002 4.89995 52.8002 5.79995 52.8002 6.69995V33.4Z" fill="#C1AE92"/>
</svg>
