<svg width="57" height="49" viewBox="0 0 57 49" fill="none" xmlns="http://www.w3.org/2000/svg">
<path d="M1.2 40.2C1 40.2 0.9 40.2 0.7 40.1C0.2 39.9 0 39.5 0 39V4.3C0 2 1.8 0.1 4.2 0C4.2 0 4.2 0 4.3 0H39.9C42.3 0 44.2 2 44.2 4.3V29.1C44.2 31.5 42.2 33.5 39.9 33.5H9.3L2 39.9C1.8 40.1 1.5 40.2 1.2 40.2ZM4.3 2.5C3.3 2.5 2.5 3.3 2.5 4.3V36.2L8 31.3C8.2 31.1 8.5 31 8.8 31H39.9C40.9 31 41.7 30.2 41.7 29.1V4.3C41.7 3.3 40.9 2.5 39.9 2.5H4.3Z" fill="#C1AE92"/>
<path d="M55.0999 48.2C54.7999 48.2 54.4999 48.1 54.2999 47.9L47.2999 41.5H23.2999C20.8999 41.5 18.8999 39.5 18.8999 37.2V36.3C18.8999 35.6 19.4999 35.1 20.0999 35.1C20.6999 35.1 21.2999 35.7 21.2999 36.3V37.2C21.2999 38.2 22.0999 39 23.1999 39H47.6999C47.9999 39 48.2999 39.1 48.4999 39.3L53.7999 44.1V12.4C53.7999 11.4 52.9999 10.5 51.9999 10.5H46.9999C46.2999 10.5 45.7999 9.9 45.7999 9.3C45.7999 8.7 46.2999 8 46.9999 8H51.9999C54.3999 8 56.2999 10 56.2999 12.4V47C56.2999 47.5 55.9999 47.9 55.5999 48.1C55.3999 48.2 55.2999 48.2 55.0999 48.2Z" fill="#C1AE92"/>
<path d="M25.4998 12H7.9998C7.2998 12 6.7998 11.4 6.7998 10.8C6.7998 10.2 7.2998 9.5 7.9998 9.5H25.4998C26.1998 9.5 26.6998 10.1 26.6998 10.7C26.6998 11.3 26.1998 12 25.4998 12Z" fill="#C1AE92"/>
<path d="M25.4998 17.4H7.9998C7.2998 17.4 6.7998 16.8 6.7998 16.2C6.7998 15.6 7.3998 15 7.9998 15H25.4998C26.1998 15 26.6998 15.6 26.6998 16.2C26.6998 16.8 26.1998 17.4 25.4998 17.4Z" fill="#C1AE92"/>
<path d="M17.3998 22.8H7.9998C7.2998 22.8 6.7998 22.2 6.7998 21.6C6.7998 21 7.3998 20.4 7.9998 20.4H17.3998C18.0998 20.4 18.5998 21 18.5998 21.6C18.5998 22.2 18.0998 22.8 17.3998 22.8Z" fill="#C1AE92"/>
<path d="M32.7001 21C32.0001 21 31.5001 20.4 31.5001 19.8C31.5001 19.6 31.5001 19.4 31.5001 19.2C31.4001 18.5 31.4001 17.5 32.2001 16.5C32.8001 15.8 33.5001 15.5 34.2001 15.3C34.6001 15.1 35.0001 15 35.2001 14.8C36.2001 13.9 36.3001 12.5 35.5001 11.4C34.9001 10.6 33.9001 10.1 33.0001 10.1C32.2001 10.1 31.6001 10.5 31.0001 11.2C30.6001 11.7 29.8001 11.8 29.2001 11.4C28.7001 11 28.5001 10.2 29.0001 9.6C30.0001 8.3 31.4001 7.5 33.0001 7.5C34.7001 7.5 36.4001 8.4 37.5001 9.8C39.1001 12 38.8001 14.9 36.8001 16.6C36.3001 17.1 35.6001 17.3 35.1001 17.5C34.7001 17.7 34.2001 17.8 34.0001 18C33.8001 18.2 33.8001 18.2 33.9001 18.9C33.9001 19.1 33.9001 19.4 33.9001 19.7C34.0001 20.5 33.4001 21 32.7001 21Z" fill="#C1AE92"/>
<path d="M34.4 23.5C34.1 23 33.5999 22.7 32.9999 22.5C31.8999 22.2 30.8999 22.9 30.5999 24C30.2999 25.1 30.9999 26.1 32.0999 26.4C32.1999 26.4 32.3999 26.4 32.4999 26.4C33.5999 26.4 34.4999 25.6 34.4999 24.5C34.5999 24.2 34.5 23.8 34.4 23.5Z" fill="#C1AE92"/>
</svg>
